<?xml version="1.0" encoding="UTF-8" standalone="no"?>
<!DOCTYPE svg PUBLIC "-//W3C//DTD SVG 1.1//EN"
 "http://www.w3.org/Graphics/SVG/1.1/DTD/svg11.dtd">
<!-- Generated by graphviz version 12.2.1 (20241206.2353)
 -->
<!-- Title: workflow Pages: 1 -->
<svg width="746pt" height="602pt"
 viewBox="0.00 0.00 745.75 601.50" xmlns="http://www.w3.org/2000/svg" xmlns:xlink="http://www.w3.org/1999/xlink">
<g id="graph0" class="graph" transform="scale(1 1) rotate(0) translate(4 597.5)">
<title>workflow</title>
<polygon fill="white" stroke="none" points="-4,4 -4,-597.5 741.75,-597.5 741.75,4 -4,4"/>
<!-- place_2bb6b986c5d6fb26dd9dd1054b545ce022371b0c -->
<g id="node1" class="node">
<title>place_2bb6b986c5d6fb26dd9dd1054b545ce022371b0c</title>
<ellipse fill="lightblue" stroke="#333333" cx="36" cy="-256.75" rx="36" ry="36"/>
<text text-anchor="middle" x="36" y="-253.82" font-family="Arial" font-size="9.00">active</text>
</g>
<!-- transition_b6589fc6ab0dc82cf12099d1c2d40ab994e8410c -->
<g id="node6" class="node">
<title>transition_b6589fc6ab0dc82cf12099d1c2d40ab994e8410c</title>
<polygon fill="none" stroke="#333333" points="214,-472.75 108,-472.75 108,-366.75 214,-366.75 214,-472.75"/>
<text text-anchor="middle" x="161" y="-416.82" font-family="Arial" font-size="9.00">democratic_campaign</text>
</g>
<!-- place_2bb6b986c5d6fb26dd9dd1054b545ce022371b0c&#45;&gt;transition_b6589fc6ab0dc82cf12099d1c2d40ab994e8410c -->
<g id="edge1" class="edge">
<title>place_2bb6b986c5d6fb26dd9dd1054b545ce022371b0c&#45;&gt;transition_b6589fc6ab0dc82cf12099d1c2d40ab994e8410c</title>
<path fill="none" stroke="#333333" d="M57.46,-285.75C71.45,-305.39 90.56,-331.85 108,-354.75 109.63,-356.88 111.29,-359.05 112.97,-361.23"/>
<polygon fill="#333333" stroke="#333333" points="111.57,-362.28 116.02,-365.15 114.33,-360.13 111.57,-362.28"/>
</g>
<!-- transition_77de68daecd823babbb58edb1c8e14d7106e83bb -->
<g id="node9" class="node">
<title>transition_77de68daecd823babbb58edb1c8e14d7106e83bb</title>
<polygon fill="none" stroke="#333333" points="211.38,-346.12 110.62,-346.12 110.62,-245.38 211.38,-245.38 211.38,-346.12"/>
<text text-anchor="middle" x="161" y="-292.82" font-family="Arial" font-size="9.00">theocratic_campaign</text>
</g>
<!-- place_2bb6b986c5d6fb26dd9dd1054b545ce022371b0c&#45;&gt;transition_77de68daecd823babbb58edb1c8e14d7106e83bb -->
<g id="edge7" class="edge">
<title>place_2bb6b986c5d6fb26dd9dd1054b545ce022371b0c&#45;&gt;transition_77de68daecd823babbb58edb1c8e14d7106e83bb</title>
<path fill="none" stroke="#333333" d="M70.61,-267.41C81.03,-270.71 92.8,-274.44 104.3,-278.09"/>
<polygon fill="#333333" stroke="#333333" points="103.54,-279.68 108.84,-279.53 104.6,-276.35 103.54,-279.68"/>
</g>
<!-- transition_902ba3cda1883801594b6e1b452790cc53948fda -->
<g id="node13" class="node">
<title>transition_902ba3cda1883801594b6e1b452790cc53948fda</title>
<polygon fill="none" stroke="#333333" points="203.5,-150.25 118.5,-150.25 118.5,-65.25 203.5,-65.25 203.5,-150.25"/>
<text text-anchor="middle" x="161" y="-104.83" font-family="Arial" font-size="9.00">royalistic_putsch</text>
</g>
<!-- place_2bb6b986c5d6fb26dd9dd1054b545ce022371b0c&#45;&gt;transition_902ba3cda1883801594b6e1b452790cc53948fda -->
<g id="edge17" class="edge">
<title>place_2bb6b986c5d6fb26dd9dd1054b545ce022371b0c&#45;&gt;transition_902ba3cda1883801594b6e1b452790cc53948fda</title>
<path fill="none" stroke="#333333" d="M58.16,-228.09C71.98,-209.69 90.62,-185.46 108,-164.75 110.54,-161.72 113.19,-158.63 115.89,-155.54"/>
<polygon fill="#333333" stroke="#333333" points="117.17,-156.73 119.16,-151.81 114.54,-154.42 117.17,-156.73"/>
</g>
<!-- place_c0309a14faf8567e25e274080becf45f562d675e -->
<g id="node2" class="node">
<title>place_c0309a14faf8567e25e274080becf45f562d675e</title>
<ellipse fill="none" stroke="#333333" cx="305" cy="-421.75" rx="55" ry="55"/>
<text text-anchor="middle" x="305" y="-418.82" font-family="Arial" font-size="9.00">democratic_campaign</text>
</g>
<!-- transition_356a192b7913b04c54574d18c28d46e6395428ab -->
<g id="node7" class="node">
<title>transition_356a192b7913b04c54574d18c28d46e6395428ab</title>
<polygon fill="none" stroke="#333333" points="491.88,-555.5 408.38,-555.5 408.38,-472 491.88,-472 491.88,-555.5"/>
<text text-anchor="middle" x="450.13" y="-510.82" font-family="Arial" font-size="9.00">democratic_vote</text>
</g>
<!-- place_c0309a14faf8567e25e274080becf45f562d675e&#45;&gt;transition_356a192b7913b04c54574d18c28d46e6395428ab -->
<g id="edge3" class="edge">
<title>place_c0309a14faf8567e25e274080becf45f562d675e&#45;&gt;transition_356a192b7913b04c54574d18c28d46e6395428ab</title>
<path fill="none" stroke="#333333" d="M351.68,-451.11C368,-461.6 386.39,-473.42 402.77,-483.95"/>
<polygon fill="#333333" stroke="#333333" points="401.81,-485.41 406.96,-486.65 403.7,-482.47 401.81,-485.41"/>
</g>
<!-- transition_ac3478d69a3c81fa62e60f5c3696165a4e5e6ac4 -->
<g id="node11" class="node">
<title>transition_ac3478d69a3c81fa62e60f5c3696165a4e5e6ac4</title>
<polygon fill="none" stroke="#333333" points="498.25,-453.88 402,-453.88 402,-357.62 498.25,-357.62 498.25,-453.88"/>
<text text-anchor="middle" x="450.13" y="-402.82" font-family="Arial" font-size="9.00">missing_candidates</text>
</g>
<!-- place_c0309a14faf8567e25e274080becf45f562d675e&#45;&gt;transition_ac3478d69a3c81fa62e60f5c3696165a4e5e6ac4 -->
<g id="edge12" class="edge">
<title>place_c0309a14faf8567e25e274080becf45f562d675e&#45;&gt;transition_ac3478d69a3c81fa62e60f5c3696165a4e5e6ac4</title>
<path fill="none" stroke="#333333" d="M360.11,-415.7C371.6,-414.42 383.73,-413.06 395.21,-411.78"/>
<polygon fill="#333333" stroke="#333333" points="395.23,-413.54 400.01,-411.24 394.85,-410.06 395.23,-413.54"/>
</g>
<!-- transition_c1dfd96eea8cc2b62785275bca38ac261256e278 -->
<g id="node12" class="node">
<title>transition_c1dfd96eea8cc2b62785275bca38ac261256e278</title>
<polygon fill="none" stroke="#333333" points="493.75,-339.38 406.5,-339.38 406.5,-252.12 493.75,-252.12 493.75,-339.38"/>
<text text-anchor="middle" x="450.13" y="-292.82" font-family="Arial" font-size="9.00">unique_candidate</text>
</g>
<!-- place_c0309a14faf8567e25e274080becf45f562d675e&#45;&gt;transition_c1dfd96eea8cc2b62785275bca38ac261256e278 -->
<g id="edge15" class="edge">
<title>place_c0309a14faf8567e25e274080becf45f562d675e&#45;&gt;transition_c1dfd96eea8cc2b62785275bca38ac261256e278</title>
<path fill="none" stroke="#333333" d="M347.02,-385.64C364.07,-370.63 383.98,-353.1 401.67,-337.53"/>
<polygon fill="#333333" stroke="#333333" points="402.38,-339.24 404.98,-334.62 400.07,-336.61 402.38,-339.24"/>
</g>
<!-- place_539d2d8c8822d5438a3e4aaee196dbbf7b727bc5 -->
<g id="node3" class="node">
<title>place_539d2d8c8822d5438a3e4aaee196dbbf7b727bc5</title>
<ellipse fill="none" stroke="#333333" cx="305" cy="-296.75" rx="52.28" ry="52.28"/>
<text text-anchor="middle" x="305" y="-293.82" font-family="Arial" font-size="9.00">theocratic_campaign</text>
</g>
<!-- transition_1b6453892473a467d07372d45eb05abc2031647a -->
<g id="node10" class="node">
<title>transition_1b6453892473a467d07372d45eb05abc2031647a</title>
<polygon fill="none" stroke="#333333" points="504.25,-232.88 396,-232.88 396,-124.62 504.25,-124.62 504.25,-232.88"/>
<text text-anchor="middle" x="450.13" y="-175.82" font-family="Arial" font-size="9.00">theocratic_designation</text>
</g>
<!-- place_539d2d8c8822d5438a3e4aaee196dbbf7b727bc5&#45;&gt;transition_1b6453892473a467d07372d45eb05abc2031647a -->
<g id="edge9" class="edge">
<title>place_539d2d8c8822d5438a3e4aaee196dbbf7b727bc5&#45;&gt;transition_1b6453892473a467d07372d45eb05abc2031647a</title>
<path fill="none" stroke="#333333" d="M345.87,-263.88C359.81,-252.39 375.77,-239.23 390.9,-226.76"/>
<polygon fill="#333333" stroke="#333333" points="391.65,-228.41 394.4,-223.87 389.42,-225.7 391.65,-228.41"/>
</g>
<!-- place_539d2d8c8822d5438a3e4aaee196dbbf7b727bc5&#45;&gt;transition_ac3478d69a3c81fa62e60f5c3696165a4e5e6ac4 -->
<g id="edge11" class="edge">
<title>place_539d2d8c8822d5438a3e4aaee196dbbf7b727bc5&#45;&gt;transition_ac3478d69a3c81fa62e60f5c3696165a4e5e6ac4</title>
<path fill="none" stroke="#333333" d="M347.02,-327.99C362.44,-339.73 380.19,-353.25 396.52,-365.69"/>
<polygon fill="#333333" stroke="#333333" points="395.3,-366.95 400.34,-368.59 397.42,-364.17 395.3,-366.95"/>
</g>
<!-- place_539d2d8c8822d5438a3e4aaee196dbbf7b727bc5&#45;&gt;transition_c1dfd96eea8cc2b62785275bca38ac261256e278 -->
<g id="edge14" class="edge">
<title>place_539d2d8c8822d5438a3e4aaee196dbbf7b727bc5&#45;&gt;transition_c1dfd96eea8cc2b62785275bca38ac261256e278</title>
<path fill="none" stroke="#333333" d="M357.67,-296.39C371.42,-296.29 386.24,-296.19 399.85,-296.09"/>
<polygon fill="#333333" stroke="#333333" points="399.52,-297.85 404.5,-296.06 399.49,-294.35 399.52,-297.85"/>
</g>
<!-- place_fd63f1ed328da3401a66770beba9587e8829e1e1 -->
<g id="node4" class="node">
<title>place_fd63f1ed328da3401a66770beba9587e8829e1e1</title>
<ellipse fill="none" stroke="#333333" cx="576.25" cy="-516.75" rx="36" ry="36"/>
<text text-anchor="middle" x="576.25" y="-513.83" font-family="Arial" font-size="9.00">vote</text>
</g>
<!-- transition_da4b9237bacccdf19c0760cab7aec4a8359010b0 -->
<g id="node8" class="node">
<title>transition_da4b9237bacccdf19c0760cab7aec4a8359010b0</title>
<polygon fill="none" stroke="#333333" points="737.75,-593.5 648.25,-593.5 648.25,-504 737.75,-504 737.75,-593.5"/>
<text text-anchor="middle" x="693" y="-545.83" font-family="Arial" font-size="9.00">democratic_result</text>
</g>
<!-- place_fd63f1ed328da3401a66770beba9587e8829e1e1&#45;&gt;transition_da4b9237bacccdf19c0760cab7aec4a8359010b0 -->
<g id="edge5" class="edge">
<title>place_fd63f1ed328da3401a66770beba9587e8829e1e1&#45;&gt;transition_da4b9237bacccdf19c0760cab7aec4a8359010b0</title>
<path fill="none" stroke="#333333" d="M611.37,-526.26C620.98,-528.94 631.64,-531.92 641.97,-534.8"/>
<polygon fill="#333333" stroke="#333333" points="641.27,-536.42 646.55,-536.07 642.21,-533.05 641.27,-536.42"/>
</g>
<!-- place_50f96a156a1a507398d98615dd028a64fe4d951c -->
<g id="node5" class="node">
<title>place_50f96a156a1a507398d98615dd028a64fe4d951c</title>
<ellipse fill="none" stroke="#333333" cx="305" cy="-104.75" rx="36" ry="36"/>
<text text-anchor="middle" x="305" y="-101.83" font-family="Arial" font-size="9.00">putsch</text>
</g>
<!-- transition_fe5dbbcea5ce7e2988b8c69bcfdfde8904aabc1f -->
<g id="node14" class="node">
<title>transition_fe5dbbcea5ce7e2988b8c69bcfdfde8904aabc1f</title>
<polygon fill="none" stroke="#333333" points="497.88,-95.5 402.38,-95.5 402.38,0 497.88,0 497.88,-95.5"/>
<text text-anchor="middle" x="450.13" y="-44.83" font-family="Arial" font-size="9.00">royalistic_crowning</text>
</g>
<!-- place_50f96a156a1a507398d98615dd028a64fe4d951c&#45;&gt;transition_fe5dbbcea5ce7e2988b8c69bcfdfde8904aabc1f -->
<g id="edge19" class="edge">
<title>place_50f96a156a1a507398d98615dd028a64fe4d951c&#45;&gt;transition_fe5dbbcea5ce7e2988b8c69bcfdfde8904aabc1f</title>
<path fill="none" stroke="#333333" d="M338.84,-91.67C355.82,-84.91 376.96,-76.49 396.17,-68.84"/>
<polygon fill="#333333" stroke="#333333" points="396.66,-70.53 400.66,-67.05 395.37,-67.28 396.66,-70.53"/>
</g>
<!-- transition_b6589fc6ab0dc82cf12099d1c2d40ab994e8410c&#45;&gt;place_c0309a14faf8567e25e274080becf45f562d675e -->
<g id="edge2" class="edge">
<title>transition_b6589fc6ab0dc82cf12099d1c2d40ab994e8410c&#45;&gt;place_c0309a14faf8567e25e274080becf45f562d675e</title>
<path fill="none" stroke="#333333" d="M214.47,-420.49C223.94,-420.62 233.87,-420.76 243.54,-420.9"/>
<polygon fill="#333333" stroke="#333333" points="243.31,-422.65 248.33,-420.97 243.36,-419.15 243.31,-422.65"/>
</g>
<!-- transition_356a192b7913b04c54574d18c28d46e6395428ab&#45;&gt;place_fd63f1ed328da3401a66770beba9587e8829e1e1 -->
<g id="edge4" class="edge">
<title>transition_356a192b7913b04c54574d18c28d46e6395428ab&#45;&gt;place_fd63f1ed328da3401a66770beba9587e8829e1e1</title>
<path fill="none" stroke="#333333" d="M492.12,-514.74C505.47,-515.06 520.29,-515.42 533.69,-515.75"/>
<polygon fill="#333333" stroke="#333333" points="533.58,-517.49 538.62,-515.86 533.66,-513.99 533.58,-517.49"/>
</g>
<!-- transition_da4b9237bacccdf19c0760cab7aec4a8359010b0&#45;&gt;place_2bb6b986c5d6fb26dd9dd1054b545ce022371b0c -->
<g id="edge6" class="edge">
<title>transition_da4b9237bacccdf19c0760cab7aec4a8359010b0&#45;&gt;place_2bb6b986c5d6fb26dd9dd1054b545ce022371b0c</title>
<path fill="none" stroke="#333333" d="M647.89,-559.06C599.8,-569.39 520.43,-583.75 451.13,-583.75 304,-583.75 304,-583.75 304,-583.75 211.94,-583.75 171.02,-583.86 108,-516.75 51.56,-456.65 39.18,-356.1 36.94,-299.26"/>
<polygon fill="#333333" stroke="#333333" points="38.7,-299.34 36.78,-294.4 35.2,-299.46 38.7,-299.34"/>
</g>
<!-- transition_77de68daecd823babbb58edb1c8e14d7106e83bb&#45;&gt;place_539d2d8c8822d5438a3e4aaee196dbbf7b727bc5 -->
<g id="edge8" class="edge">
<title>transition_77de68daecd823babbb58edb1c8e14d7106e83bb&#45;&gt;place_539d2d8c8822d5438a3e4aaee196dbbf7b727bc5</title>
<path fill="none" stroke="#333333" d="M211.67,-296.1C222.87,-296.18 234.85,-296.26 246.35,-296.34"/>
<polygon fill="#333333" stroke="#333333" points="246.15,-298.09 251.17,-296.38 246.18,-294.59 246.15,-298.09"/>
</g>
<!-- transition_1b6453892473a467d07372d45eb05abc2031647a&#45;&gt;place_2bb6b986c5d6fb26dd9dd1054b545ce022371b0c -->
<g id="edge10" class="edge">
<title>transition_1b6453892473a467d07372d45eb05abc2031647a&#45;&gt;place_2bb6b986c5d6fb26dd9dd1054b545ce022371b0c</title>
<path fill="none" stroke="#333333" d="M395.7,-177.8C327.31,-178.09 205.96,-183.74 108,-215.75 95.44,-219.85 82.66,-226.37 71.46,-233.01"/>
<polygon fill="#333333" stroke="#333333" points="70.76,-231.39 67.39,-235.49 72.58,-234.38 70.76,-231.39"/>
</g>
<!-- transition_ac3478d69a3c81fa62e60f5c3696165a4e5e6ac4&#45;&gt;place_2bb6b986c5d6fb26dd9dd1054b545ce022371b0c -->
<g id="edge13" class="edge">
<title>transition_ac3478d69a3c81fa62e60f5c3696165a4e5e6ac4&#45;&gt;place_2bb6b986c5d6fb26dd9dd1054b545ce022371b0c</title>
<path fill="none" stroke="#333333" d="M401.93,-453.65C386.07,-468.49 369.91,-481.96 360,-485.75 255.4,-525.81 197.4,-549.24 108,-481.75 51.61,-439.18 38.98,-351.83 36.74,-299.37"/>
<polygon fill="#333333" stroke="#333333" points="38.49,-299.6 36.57,-294.66 35,-299.72 38.49,-299.6"/>
</g>
<!-- transition_c1dfd96eea8cc2b62785275bca38ac261256e278&#45;&gt;place_2bb6b986c5d6fb26dd9dd1054b545ce022371b0c -->
<g id="edge16" class="edge">
<title>transition_c1dfd96eea8cc2b62785275bca38ac261256e278&#45;&gt;place_2bb6b986c5d6fb26dd9dd1054b545ce022371b0c</title>
<path fill="none" stroke="#333333" d="M406.02,-259.28C392.19,-249.72 376.24,-240.71 360,-235.75 252.88,-203.05 218.89,-221.03 108,-236.75 97.71,-238.21 86.81,-240.75 76.72,-243.55"/>
<polygon fill="#333333" stroke="#333333" points="76.33,-241.84 72.01,-244.89 77.3,-245.2 76.33,-241.84"/>
</g>
<!-- transition_902ba3cda1883801594b6e1b452790cc53948fda&#45;&gt;place_50f96a156a1a507398d98615dd028a64fe4d951c -->
<g id="edge18" class="edge">
<title>transition_902ba3cda1883801594b6e1b452790cc53948fda&#45;&gt;place_50f96a156a1a507398d98615dd028a64fe4d951c</title>
<path fill="none" stroke="#333333" d="M203.84,-106.87C222.36,-106.47 244.09,-106.02 262.56,-105.63"/>
<polygon fill="#333333" stroke="#333333" points="262.22,-107.38 267.18,-105.53 262.15,-103.88 262.22,-107.38"/>
</g>
<!-- transition_fe5dbbcea5ce7e2988b8c69bcfdfde8904aabc1f&#45;&gt;place_2bb6b986c5d6fb26dd9dd1054b545ce022371b0c -->
<g id="edge20" class="edge">
<title>transition_fe5dbbcea5ce7e2988b8c69bcfdfde8904aabc1f&#45;&gt;place_2bb6b986c5d6fb26dd9dd1054b545ce022371b0c</title>
<path fill="none" stroke="#333333" d="M401.97,-33.69C330.86,-15.58 195.25,6.6 108,-56.75 58.31,-92.83 43.23,-166.7 38.75,-213.86"/>
<polygon fill="#333333" stroke="#333333" points="37.01,-213.69 38.32,-218.82 40.5,-213.99 37.01,-213.69"/>
</g>
</g>
</svg>
